<?xml version="1.0" encoding="UTF-8"?>
<svg width="50" height="50" xmlns="http://www.w3.org/2000/svg">
 <!-- Created with SVG-edit - http://svg-edit.googlecode.com/ -->

 <g>
  <title>Layer 1</title>
  <g id="svg_6">
   <path fill="black" d="m33.978214,30.553185l0,2.311653c0,1.642986 -3.614456,2.97493 -8.073296,2.97493c-4.458508,0 -8.073076,-1.331944 -8.073076,-2.97493l0,-2.311653c0.499786,0.367306 1.126745,0.691017 1.870333,0.965179c1.679184,0.618679 3.882278,0.959457 6.202744,0.959457c2.320906,0 4.523775,-0.340778 6.203175,-0.959457c0.743477,-0.27416 1.370552,-0.597874 1.870121,-0.965179zm-1.870121,-3.866772c-1.679399,0.618786 -3.882269,0.959669 -6.203175,0.959669c-2.320465,0 -4.523561,-0.340878 -6.202738,-0.959669c-0.743587,-0.273945 -1.370665,-0.597769 -1.870338,-0.965075l0,2.290951c0,1.642992 3.614458,2.974928 8.073071,2.974928c4.458733,0 8.07329,-1.331942 8.07329,-2.974928l0,-2.290951c-0.499565,0.367424 -1.126637,0.69113 -1.870117,0.965075l0.000008,0zm-6.203175,-11.318467c-4.458515,0 -8.073076,1.332051 -8.073076,2.975039s3.614452,2.975033 8.073076,2.975033c4.458727,0 8.073296,-1.332047 8.073296,-2.975033s-3.614456,-2.975039 -8.073296,-2.975039zm6.203175,6.480783c-1.679399,0.618898 -3.882269,0.959671 -6.203175,0.959671c-2.320465,0 -4.523561,-0.340773 -6.202738,-0.959671c-0.743587,-0.273945 -1.370665,-0.597872 -1.870338,-0.965071l0,2.296793c0,1.643089 3.614458,2.97493 8.073071,2.97493c4.458733,0 8.07329,-1.331837 8.07329,-2.97493l0,-2.296793c-0.499565,0.367199 -1.126637,0.691133 -1.870117,0.965071l0.000008,0zm-6.538191,-19.543852c-6.053705,0 -11.970639,2.480232 -15.973419,6.499826l-3.819165,-3.904978l-2.480173,13.892716l13.587689,-2.535942l-3.861599,-3.948254c3.125654,-3.123016 7.831312,-5.048641 12.546667,-5.048641c9.57543,0 17.337824,7.936577 17.337824,17.726898s-7.76239,17.7269 -17.337824,17.7269c-9.547865,0 -17.292382,-7.891441 -17.336755,-17.642998l-4.823674,0.931597c0.519705,12.055285 10.241692,21.666124 22.160427,21.666124c12.251816,0 22.1838,-10.154869 22.1838,-22.681623s-9.931881,-22.681619 -22.1838,-22.681619l0,-0.000007l0.000002,0z" id="svg_4"/>
  </g>
 </g>
</svg>