<?xml version="1.0" encoding="UTF-8"?>
<svg width="50" height="50" xmlns="http://www.w3.org/2000/svg">
 <g>
  <title>Layer 1</title>
  <path id="inbox-6-icon" d="m36.455093,5.390765l-22.870226,0l-9.584867,16.1778l0,22.040661l42,0l0,-22.040661l-9.544907,-16.1778zm-6.277681,23.842418l-10.354933,0c-0.94989,0 -1.72006,-0.799353 -1.72006,-1.78546c0,-0.985893 0.77017,-1.785246 1.72006,-1.785246l10.354933,0c0.950003,0 1.720167,0.799353 1.720167,1.785246c0,0.98621 -0.770164,1.78546 -1.720167,1.78546zm-21.390124,-7.664618l7.019812,-11.935337l18.414451,0l6.995239,11.935337l-32.429502,0zm27.588082,-5.371298l-22.632491,0l1.30669,-2.221905l20.023601,0l1.3022,2.221905zm-2.025684,-3.45644l-18.573885,0l1.120134,-1.904492l16.337593,0l1.116158,1.904492zm4.196129,7.159616l-26.981023,0l1.369075,-2.327711l24.24766,0l1.364288,2.327711z" fill="black"/>
 </g>

</svg>