<?xml version="1.0" encoding="UTF-8"?>
<svg width="50" height="50" xmlns="http://www.w3.org/2000/svg">
 <g>
  <title>Layer 1</title>
  <path id="computer-5-icon" d="m19.713322,32.298313l-3.812308,3.380329l18.19797,0l-3.812305,-3.380329l-10.573355,0l-0.000002,0zm25.075962,-1.998219l-39.578567,0l0,-25.06576l39.578567,0l0,25.06576zm-3.812428,-3.380333l0,-18.305091l-31.953832,0.000202l0.000227,18.304889l31.953605,0zm-35.76614,10.778297l0,7.0676l39.578568,0l0,-7.0676l-39.578568,0zm19.789284,4.366768c-0.5189,0 -0.939413,-0.37286 -0.939413,-0.83297s0.420513,-0.83297 0.939413,-0.83297s0.939411,0.372868 0.939411,0.83297s-0.420513,0.83297 -0.939411,0.83297zm16.441093,-0.075722l-12.145868,0l0,-1.514484l12.145884,0l0,1.514484l-0.000015,0z" fill="black"/>
 </g>

</svg>