<?xml version="1.0" encoding="UTF-8"?>
<svg width="50" height="50" xmlns="http://www.w3.org/2000/svg">
 <g>
  <title>Layer 1</title>
  <path id="database-2-icon" d="m36.692036,7.6685c-3.551682,-1.075962 -8.236706,-1.6685 -13.192036,-1.6685c-4.955223,0 -9.640241,0.592539 -13.192042,1.6685c-4.067678,1.232314 -6.307958,3.027624 -6.307958,5.055263l0,23.552566c0,2.027637 2.240278,3.822941 6.307958,5.05526c3.551802,1.075867 8.236705,1.668411 13.192042,1.668411s9.640354,-0.592545 13.192036,-1.668499c4.067677,-1.232231 6.307957,-3.027534 6.307957,-5.055172l0,-23.552566c0,-2.027639 -2.24028,-3.822949 -6.307957,-5.055263zm-25.100236,2.506747c3.15281,-0.955081 7.381742,-1.481073 11.9082,-1.481073s8.755497,0.525992 11.908192,1.48108c3.017944,0.914222 4.088814,1.944205 4.088814,2.54851s-1.070869,1.634287 -4.088814,2.54851c-3.152695,0.955081 -7.381863,1.481078 -11.908192,1.481078s-8.75539,-0.525991 -11.9082,-1.481078c-3.017942,-0.914228 -4.088812,-1.944296 -4.088812,-2.54851s1.070868,-1.634288 4.088812,-2.548516zm27.905206,26.101082c0,0.604298 -1.070869,1.634197 -4.088814,2.548504c-3.152695,0.95509 -7.381741,1.480991 -11.908192,1.480991s-8.75539,-0.525902 -11.9082,-1.480991c-3.017942,-0.914307 -4.088812,-1.944298 -4.088812,-2.548504l0,-3.533318c0.805807,0.392807 1.742388,0.753548 2.80497,1.075428c3.551802,1.075863 8.236703,1.668407 13.19204,1.668407s9.640356,-0.592545 13.192038,-1.668499c1.062695,-0.32188 1.999161,-0.682526 2.80497,-1.075424l0,3.533405zm0,-7.513153c0,0.604298 -1.070869,1.634195 -4.088814,2.548504c-3.152695,0.95509 -7.381863,1.480991 -11.908192,1.480991s-8.75539,-0.525902 -11.9082,-1.480991c-3.017942,-0.914309 -4.088812,-1.944296 -4.088812,-2.548504l0,-4.034443c0.805807,0.392813 1.742388,0.753567 2.80497,1.075424c3.551802,1.075878 8.236819,1.668501 13.19204,1.668501c4.955332,0 9.640356,-0.592623 13.192038,-1.668501c1.062695,-0.321857 1.999161,-0.682611 2.80497,-1.075424l0,4.034443zm-4.088814,-5.465857c-3.152695,0.955177 -7.381863,1.481079 -11.908192,1.481079s-8.75539,-0.525902 -11.9082,-1.481079c-3.017942,-0.914225 -4.088812,-1.944204 -4.088812,-2.548512l0,-4.045214c0.805807,0.392807 1.742388,0.753471 2.80497,1.075426c3.551802,1.075962 8.236703,1.668507 13.19204,1.668507s9.640356,-0.592545 13.192038,-1.668507c1.062695,-0.321865 1.999161,-0.682526 2.80497,-1.075426l0,4.045214c0,0.604307 -1.070869,1.634287 -4.088814,2.548512z" fill="black"/>
 </g>

</svg>