<?xml version="1.0" encoding="UTF-8" standalone="no"?>
<!-- Created with Inkscape (http://www.inkscape.org/) -->

<svg
   xmlns:dc="http://purl.org/dc/elements/1.1/"
   xmlns:cc="http://creativecommons.org/ns#"
   xmlns:rdf="http://www.w3.org/1999/02/22-rdf-syntax-ns#"
   xmlns:svg="http://www.w3.org/2000/svg"
   xmlns="http://www.w3.org/2000/svg"
   xmlns:sodipodi="http://sodipodi.sourceforge.net/DTD/sodipodi-0.dtd"
   xmlns:inkscape="http://www.inkscape.org/namespaces/inkscape"
   width="60"
   height="75"
   id="svg2"
   version="1.1"
   inkscape:version="0.48.2 r9819"
   sodipodi:docname="doc.svg"
   inkscape:export-filename="C:\Users\John\Dropbox\Desarrollo Software\Proyecto WorkFlow\WorkFlow\img\doc.PNG"
   inkscape:export-xdpi="90"
   inkscape:export-ydpi="90">
  <defs
     id="defs4" />
  <sodipodi:namedview
     id="base"
     pagecolor="#ffffff"
     bordercolor="#666666"
     borderopacity="1.0"
     inkscape:pageopacity="0.0"
     inkscape:pageshadow="2"
     inkscape:zoom="11.2"
     inkscape:cx="35.598059"
     inkscape:cy="12.464279"
     inkscape:document-units="px"
     inkscape:current-layer="layer1"
     showgrid="false"
     inkscape:window-width="1354"
     inkscape:window-height="727"
     inkscape:window-x="-4"
     inkscape:window-y="-3"
     inkscape:window-maximized="1" />
  <metadata
     id="metadata7">
    <rdf:RDF>
      <cc:Work
         rdf:about="">
        <dc:format>image/svg+xml</dc:format>
        <dc:type
           rdf:resource="http://purl.org/dc/dcmitype/StillImage" />
        <dc:title></dc:title>
      </cc:Work>
    </rdf:RDF>
  </metadata>
  <g
     inkscape:label="Capa 1"
     inkscape:groupmode="layer"
     id="layer1"
     transform="translate(0,-977.36218)">
    <path
       style="fill:#000000"
       d="M 0.83425988,1051.9501 C 0.05161488,1051.4718 -1.2048582e-7,1049.185 -1.2048582e-7,1014.9864 -1.2048582e-7,987.28361 0.13732788,978.39203 0.57206388,977.94731 1.0044489,977.50499 8.2170489,977.3621 30.111939,977.3621 c 28.545818,0 28.975291,0.0143 29.481582,0.98205 0.353392,0.6755 0.470237,8.78188 0.374311,25.96875 l -0.13946,24.9866 -1.311004,2.7293 c -3.011803,6.2702 -11.425245,14.3448 -18.912172,18.1507 l -4.014689,2.0407 -16.960995,0.1199 c -11.1562561,0.079 -17.2465091,-0.054 -17.79525212,-0.39 z m 33.85971212,-4.0028 c 1.427954,-1.555 2.490195,-6.2098 2.490195,-10.9123 l 0,-4.0078 2.621961,-0.2789 c 1.442078,-0.1535 3.847822,-0.4104 5.346096,-0.571 3.874175,-0.4152 8.357032,-1.9368 9.835537,-3.3386 l 1.26521,-1.1995 0,-23.4317 0,-23.43168 -26.219605,0 -26.2196051,0 0,34.13728 0,34.1373 14.9335861,0 c 14.893746,0 14.936283,-0.01 15.946625,-1.1031 z"
       id="path2996"
       inkscape:connector-curvature="0" />
    <path
       style="opacity:0.98999999;fill:#ffffff;fill-opacity:1;stroke:#000000;stroke-width:0.44642857;stroke-linecap:round;stroke-linejoin:round;stroke-miterlimit:4;stroke-opacity:1;stroke-dasharray:none"
       d="m 3.8302019,37.571435 0,-34.1071426 26.2053571,0 26.205357,0 0,23.3844976 0,23.384496 -0.647321,0.60114 c -0.356027,0.330627 -0.850871,0.755513 -1.099653,0.944192 -1.393258,1.056657 -4.766038,2.235069 -7.999419,2.794909 -0.624717,0.108166 -8.920105,1.033623 -9.26494,1.033623 -0.06615,0 -0.09581,0.852364 -0.09581,2.753517 0,5.248069 -0.589067,8.782178 -1.876187,11.256186 -0.634726,1.220024 -1.175439,1.603839 -2.543455,1.80542 -0.859872,0.126705 -10.168954,0.243877 -19.888393,0.250331 l -8.9955361,0.006 0,-34.107143 z"
       id="path2998"
       inkscape:connector-curvature="0"
       transform="translate(0,977.36218)" />
  </g>
</svg>
