<?xml version="1.0" encoding="UTF-8" standalone="no"?>
<!-- Created with Inkscape (http://www.inkscape.org/) -->

<svg
   xmlns:dc="http://purl.org/dc/elements/1.1/"
   xmlns:cc="http://creativecommons.org/ns#"
   xmlns:rdf="http://www.w3.org/1999/02/22-rdf-syntax-ns#"
   xmlns:svg="http://www.w3.org/2000/svg"
   xmlns="http://www.w3.org/2000/svg"
   xmlns:sodipodi="http://sodipodi.sourceforge.net/DTD/sodipodi-0.dtd"
   xmlns:inkscape="http://www.inkscape.org/namespaces/inkscape"
   width="75"
   height="60"
   id="svg2"
   version="1.1"
   inkscape:version="0.48.2 r9819"
   sodipodi:docname="docs.svg"
   inkscape:export-filename="C:\Users\John\Dropbox\Desarrollo Software\Proyecto WorkFlow\WorkFlow\img\documentos.PNG"
   inkscape:export-xdpi="90"
   inkscape:export-ydpi="90">
  <defs
     id="defs4" />
  <sodipodi:namedview
     id="base"
     pagecolor="#ffffff"
     bordercolor="#666666"
     borderopacity="1.0"
     inkscape:pageopacity="0.0"
     inkscape:pageshadow="2"
     inkscape:zoom="5.6"
     inkscape:cx="29.32554"
     inkscape:cy="45.297358"
     inkscape:document-units="px"
     inkscape:current-layer="layer1"
     showgrid="false"
     inkscape:window-width="1354"
     inkscape:window-height="716"
     inkscape:window-x="-4"
     inkscape:window-y="-3"
     inkscape:window-maximized="1" />
  <metadata
     id="metadata7">
    <rdf:RDF>
      <cc:Work
         rdf:about="">
        <dc:format>image/svg+xml</dc:format>
        <dc:type
           rdf:resource="http://purl.org/dc/dcmitype/StillImage" />
        <dc:title></dc:title>
      </cc:Work>
    </rdf:RDF>
  </metadata>
  <g
     inkscape:label="Capa 1"
     inkscape:groupmode="layer"
     id="layer1"
     transform="translate(0,-992.36218)">
    <path
       style="fill:#000000"
       d="m 10.872,1051.6466 c -0.377585,-0.4358 -0.599244,-1.2922 -0.599244,-2.3154 l 0,-1.6237 -2.5681894,0 -2.5681887,0 0,-2.9232 0,-2.9232 -2.568189,0 -2.56818864865448,0 0,-24.7494 0,-24.74953 32.18796874865449,0 32.187969,0 0,2.14365 0,2.14366 2.568189,0 2.568189,0 0,2.33853 0,2.33849 2.197757,0 c 3.627033,0 3.281046,-1.83599 3.281046,17.4115 0,11.7188 -0.117993,17.2006 -0.38291,17.7896 -0.64744,1.4395 -2.776264,3.7808 -4.753468,5.2279 -1.035836,0.7582 -1.960384,1.5013 -2.054551,1.6513 -0.252422,0.4021 -6.22841,3.6563 -9.632644,5.2453 -3.231826,1.5086 -6.005508,2.4158 -8.570228,2.803 -0.911786,0.1377 -1.65779,0.4031 -1.65779,0.5899 0,0.1889 -8.088429,0.3292 -18.234141,0.3164 -16.992457,-0.022 -18.274949,-0.07 -18.833387,-0.7148 z m 37.409046,-3.4566 c 1.479599,-1.6842 2.275128,-4.888 1.928484,-7.7666 l -0.202349,-1.6803 2.818457,0 c 4.297741,-0.01 13.244192,-1.0499 14.968946,-1.7449 0.844421,-0.3403 1.884538,-0.8792 2.311371,-1.1975 l 0.776062,-0.5787 0,-15.971 0,-15.971 -28.421292,0 -28.421291,0 0,23.1904 0,23.1905 16.476696,0 16.476692,0 1.288224,-1.4663 z m -38.00829,-24.9592 c 0,-21.6732 0.0321,-22.0679 0.0321,-22.0679 0,0 11.897528,0.1636 28.457673,0.1636 l 27.667956,0 0,-1.3641 0,-1.36415 -28.934929,0 -28.9349304,0 0,22.80075 0,22.8007 0.856063,0 0.8560634,0 z m -5.1363781,-5.7294 0,-20.85192 27.8701891,0 27.870193,0 0.139915,-1.36415 0.139918,-1.36414 -28.86617,0 -28.8661711,0 0,22.21601 0,22.2161 0.856063,0 0.856063,0 z"
       id="path2996"
       inkscape:connector-curvature="0"
       sodipodi:nodetypes="cscccccccccccccccccsssccccscccsccccccccccccccccccccccccccccccccccccccccc" />
    <path
       style="opacity:0.98999999;fill:#ffffff;fill-opacity:1;stroke:#000000;stroke-width:0.89285713;stroke-linecap:round;stroke-linejoin:round;stroke-miterlimit:4;stroke-opacity:1;stroke-dasharray:none"
       d="m 14.146969,34.113356 0,-23.125 28.303571,0 28.303572,0 -0.0013,15.9375 -0.0012,15.9375 -0.579136,0.392063 c -0.982123,0.664873 -2.853511,1.466257 -3.883482,1.663023 -3.25759,0.622329 -8.696011,1.181484 -13.165747,1.35365 l -3.255805,0.125407 0.122336,0.465072 c 0.06728,0.255789 0.123562,1.389178 0.125059,2.518643 0.004,2.989783 -0.609554,4.790692 -2.328554,6.835223 l -0.859152,1.021919 -16.390081,0 -16.390081,0 0,-23.125 z"
       id="path2998"
       inkscape:connector-curvature="0"
       transform="translate(0,992.36218)" />
    <path
       style="opacity:0.98999999;fill:#ffffff;fill-opacity:1;stroke:#000000;stroke-width:0.89285713;stroke-linecap:round;stroke-linejoin:round;stroke-miterlimit:4;stroke-opacity:1;stroke-dasharray:none"
       d="m 8.6112543,29.024071 0,-22.6785718 28.8392857,0 28.839286,0 0,1.2623101 0,1.2623102 -28.035739,-0.056953 -28.03574,-0.056953 2.5e-5,21.4732145 2.5e-5,21.473214 -0.8035712,0 -0.8035715,0 0,-22.678571 z"
       id="path3004"
       inkscape:connector-curvature="0"
       transform="translate(0,992.36218)" />
    <path
       style="opacity:0.98999999;fill:#ffffff;fill-opacity:1;stroke:#000000;stroke-width:0.89285713;stroke-linecap:round;stroke-linejoin:round;stroke-miterlimit:4;stroke-opacity:1;stroke-dasharray:none"
       d="m 3.4326829,23.845499 0,-22.142857 28.8280591,0 28.828059,0 -0.0877,0.6696429 c -0.04824,0.3683036 -0.127184,0.9308036 -0.175436,1.25 l -0.08773,0.5803571 -27.84905,0 -27.8490523,0 0,20.892857 0,20.892857 -0.8035714,0 -0.8035714,0 0,-22.142857 z"
       id="path3006"
       inkscape:connector-curvature="0"
       transform="translate(0,992.36218)" />
  </g>
</svg>
