<?xml version="1.0" encoding="UTF-8"?>
<svg width="50" height="50" xmlns="http://www.w3.org/2000/svg">
 <g>
  <title>Layer 1</title>
  <path fill="black" d="m11.3013,44.723301l0,-38.446598l27.397305,0c0,0 0,20.834347 0,24.302185c0,7.700241 -8.798601,4.059498 -8.798601,4.059498s3.098265,10.084915 -3.999081,10.084915c-3.190094,0 -2.825245,0 -14.599623,0zm28.327774,-7.095798c1.315914,-1.453979 2.054359,-3.420441 2.054359,-5.470013l0,-29.15749l-33.366966,0l0,45l18.99658,0c1.883135,0 3.68836,-0.824745 5.015619,-2.291283l7.300407,-8.081215zm-3.552052,-19.982624l-21.955053,0l0,2.184469l21.955053,0l0,-2.184469zm-16.897549,4.086918l-5.057507,0l0,2.184467l5.057507,0l0,-2.184467zm0,4.150486l-5.057507,0l0,2.184467l5.057507,0l0,-2.184467zm16.897549,-4.150486l-5.256496,0l0,2.184467l5.256496,0l0,-2.184467zm0,4.150486l-5.256496,0l0,2.184467l5.256496,0l0,-2.184467zm0,4.150486l-21.955053,0l0,2.184467l21.955053,0l0,-2.184467zm-7.22987,-8.300972l-7.793802,0l0,6.334953l7.793802,0l0,-6.334953zm-1.857265,12.469696l-12.867919,0l0,2.184467l12.867919,0l0,-2.184467zm0,0l-12.867919,0l0,2.184467l12.867919,0l0,-2.184467zm0,4.150486l-12.867919,0l0,2.184467l12.867919,0l0,-2.184467z" id="newspaper-5-icon"/>
  <text font-style="normal" font-weight="bold" transform="matrix(0.410604, 0, 0, 0.521215, -56.3889, -32.9225)" xml:space="preserve" text-anchor="middle" font-family="Sans-serif" font-size="24" id="svg_3" y="94.111284" x="198.975138" stroke-width="0" fill="#000000">DOC</text>
 </g>

</svg>