<?xml version="1.0" encoding="UTF-8"?>
<svg width="50" height="50" xmlns="http://www.w3.org/2000/svg">
 <g>
  <title>Layer 1</title>
  <g id="svg_2">
   <path id="newspaper-7-icon" d="m39.205517,16.364363l1.177055,0.852638l-19.118959,10.481157l-1.17671,-0.852638l19.118614,-10.481157zm-23.588862,7.242977l1.176139,0.852299l5.168179,-2.833305l-1.176489,-0.852184l-5.167829,2.833191zm2.234891,1.619139l1.176491,0.852076l5.167942,-2.833082l-1.176367,-0.851952l-5.168066,2.832958zm-4.436476,-3.213842l1.177052,0.852762l19.118622,-10.481274l-1.176708,-0.852531l-19.118965,10.481043zm14.66354,-5.237295l-5.880705,3.223886l3.411612,2.471447l5.880816,-3.224005l-3.411722,-2.471331l0,0.000002zm-7.004938,16.484837l27.926332,-15.309647l-19.058506,-13.805832l-27.926666,15.309311l19.05884,13.806168zm22.909765,-16.07777l-23.422546,12.84075l-14.529044,-10.524868l23.422544,-12.840624l14.529047,10.524743m-8.071907,-3.204041l-1.176262,-0.852299l-5.167484,2.832959l1.176367,0.852068l5.167379,-2.832727l0,-0.000001zm2.235237,1.619264l-1.176369,-0.852415l-5.167038,2.832727l1.176033,0.852299l5.167374,-2.832611zm8.057301,6.688652l-25.658115,14.086845l-16.288698,-11.806482l-2.257254,1.237684l19.058846,13.806053l27.926323,-15.309542l-2.781101,-2.014559zm0.007874,6.244802l-25.657888,14.086962l-16.288697,-11.806591l-2.257368,1.237682l19.058503,13.806286l27.926552,-15.309542l-2.781101,-2.014797z" fill="black"/>
   <text fill="#000000" stroke-width="0" x="573.547296" y="91.801607" font-size="24" font-family="Sans-serif" text-anchor="middle" xml:space="preserve" transform="matrix(0.22746, -0.138075, 0.0846266, 0.142454, -116.754, 81.9535)" font-weight="bold" font-style="normal" id="svg_3">DOCS</text>
  </g>
 </g>

</svg>