<?xml version="1.0" encoding="UTF-8"?>
<svg width="50" height="50" xmlns="http://www.w3.org/2000/svg">
 <g>
  <title>Layer 1</title>
  <path transform="rotate(38.3187, 22.1777, 27.0762)" fill="black" d="m10.524888,25.407137c-0.549631,0.416704 -0.871029,1.056555 -0.871029,1.734259l0,4.977913l-3.793344,0l0,-6.65324c0,-1.274445 0.616713,-2.474606 1.664868,-3.239943l8.115518,-5.925291c1.142219,-0.833991 1.815618,-0.987329 4.985969,-2.134655c0.518246,-0.187572 0.862093,-0.668648 0.862093,-1.206266l0,-4.532319l3.747355,0l0,6.392538c0,1.124545 -0.693111,2.139617 -1.759123,2.576066l-4.176132,1.709846l4.270874,5.617958l1.886234,-1.340147c0.879759,-0.62516 1.987637,-0.86585 3.057367,-0.664162l10.378857,1.955957l-0.888783,4.440098l-8.189957,-1.411747c-2.507248,-0.431875 -4.459394,2.327183 -2.992447,4.255301l2.398293,3.152308c0.61141,0.803669 1.073841,1.70499 1.366512,2.663322l1.69035,5.535278l-4.205355,2.416924l-2.216949,-6.710556c-0.341789,-1.034721 -1.008427,-1.939178 -1.906424,-2.586281l-4.646812,-3.349499c-0.832579,-0.600079 -1.553356,-1.33433 -2.131227,-2.170904l-4.779315,-6.918518l-1.867393,1.415762l0.000002,-0.000002l-0.000001,0zm-0.708614,-16.177402c-2.404956,0 -4.354638,1.895597 -4.354638,4.233656c0,2.338251 1.949787,4.23385 4.354638,4.23385c2.404965,0 4.35465,-1.895599 4.35465,-4.23385c0,-2.338058 -1.949682,-4.233656 -4.35465,-4.233656z" id="danger-10-icon"/>
 </g>

</svg>