<?xml version="1.0" encoding="UTF-8"?>
<svg width="50" height="50" xmlns="http://www.w3.org/2000/svg">
 <g>
  <title>Layer 1</title>
  <path id="danger-10-icon" d="m36.231041,24.991753c0.568504,0.394802 0.900928,1.001015 0.900928,1.643101l0,4.716253l3.923618,0l0,-6.30352c0,-1.207457 -0.637875,-2.344538 -1.722031,-3.069641l-8.394236,-5.613829c-1.181435,-0.790154 -1.877974,-0.935431 -5.157188,-2.022449c-0.536051,-0.177712 -0.891701,-0.633506 -0.891701,-1.142867l0,-4.294077l-3.876055,0l0,6.05652c0,1.065432 0.716921,2.027149 1.819536,2.440659l4.31955,1.619972l-4.417551,5.322651l-1.950996,-1.269705c-0.909981,-0.5923 -2.055912,-0.820335 -3.162374,-0.629246l-10.735296,1.85314l0.919303,4.206711l8.471227,-1.337542c2.593349,-0.409172 4.612535,2.204861 3.095222,4.031622l-2.480675,2.986614c-0.632404,0.761421 -1.110722,1.615364 -1.413432,2.523327l-1.748407,5.244328l4.349786,2.289875l2.293074,-6.357822c0.353535,-0.980331 1.04306,-1.837246 1.971905,-2.45034l4.806408,-3.173431c0.861155,-0.568539 1.606693,-1.264189 2.204412,-2.056789l4.943455,-6.554853l1.931519,1.341343l0,-0.000002zm0.732944,-15.327051c2.48756,0 4.504181,1.795963 4.504181,4.011115c0,2.215344 -2.01675,4.011302 -4.504181,4.011302c-2.487556,0 -4.504208,-1.795957 -4.504208,-4.011302c0,-2.215152 2.016647,-4.011115 4.504208,-4.011115z" fill="black" transform="rotate(-34.7406, 24.1777, 26.5742)"/>
 </g>

</svg>