<?xml version="1.0" encoding="utf-8"?>

<!-- The icon can be used freely in both personal and commercial projects with no attribution required, but always appreciated. 
You may NOT sub-license, resell, rent, redistribute or otherwise transfer the icon without express written permission from iconmonstr.com -->

<!DOCTYPE svg PUBLIC "-//W3C//DTD SVG 1.1//EN" "http://www.w3.org/Graphics/SVG/1.1/DTD/svg11.dtd">
<svg version="1.1" xmlns="http://www.w3.org/2000/svg" xmlns:xlink="http://www.w3.org/1999/xlink" x="0px" y="0px"
	 width="512px" height="512px" viewBox="0 0 512 512" enable-background="new 0 0 512 512" xml:space="preserve">
<path id="password-10-icon" d="M348.465,220.11L462,308.56l-48.03,8.085l31.624,63.956l-29.72,15.217l-31.782-65.146l-35.627,33.285
	V220.11z M318.465,294.183H50v-178h412V270.53l-40-31.161v-83.187H90v98h228.465V294.183z M143,181.183c-13.808,0-25,11.192-25,25
	c0,13.807,11.192,25,25,25c13.807,0,25-11.193,25-25C168,192.375,156.807,181.183,143,181.183z M243.333,206.183
	c0,13.807-11.193,25-25,25c-13.808,0-25-11.193-25-25c0-13.808,11.192-25,25-25C232.14,181.183,243.333,192.375,243.333,206.183z
	 M318.667,206.183c0,13.807-11.193,25-25,25c-13.808,0-25-11.193-25-25c0-13.808,11.192-25,25-25
	C307.474,181.183,318.667,192.375,318.667,206.183z"/>
</svg>
