<?xml version="1.0" encoding="UTF-8"?>
<svg width="50" height="50" xmlns="http://www.w3.org/2000/svg">
 <g>
  <title>Layer 1</title>
  <path id="printer-3-icon" d="m41.156551,12.970874l0,-8.970874l-33.313107,0l0,8.970874l-5.843447,0l0,20.694173l5.843447,0l0,12.334953c20.537912,0 19.436724,0 21.702017,0c2.739645,0 4.02302,-1.529129 5.64324,-2.95631c1.273106,-1.121464 2.15749,-1.985828 3.385918,-3.262138c1.287853,-1.337986 2.581928,-2.582489 2.581928,-4.485432c0,-1.631069 0,-1.631069 0,-1.631069l5.843449,0l0,-20.694176l-5.843449,0l0.000004,-0.000001zm-12.814295,28.921586c-1.549006,0 -10.12718,0 -16.129877,0l0,-13.120619l24.473991,0c0,2.330393 0,4.150766 0,5.088221c0,3.286602 -6.305571,2.081341 -6.305571,2.081341s1.524431,5.951057 -2.038544,5.951057zm-16.129877,-33.81479l24.575241,0l0,4.893204l-24.575241,0l0,-4.893204zm30.45517,10.068479c-0.729832,0 -1.321602,-0.552319 -1.321602,-1.233597s0.59177,-1.233496 1.321602,-1.233496s1.321712,0.552219 1.321712,1.233496s-0.591885,1.233597 -1.321712,1.233597z" fill="black"/>
 </g>

</svg>