<?xml version="1.0" encoding="UTF-8" standalone="no"?>
<!-- Created with Inkscape (http://www.inkscape.org/) -->

<svg
   xmlns:dc="http://purl.org/dc/elements/1.1/"
   xmlns:cc="http://creativecommons.org/ns#"
   xmlns:rdf="http://www.w3.org/1999/02/22-rdf-syntax-ns#"
   xmlns:svg="http://www.w3.org/2000/svg"
   xmlns="http://www.w3.org/2000/svg"
   xmlns:sodipodi="http://sodipodi.sourceforge.net/DTD/sodipodi-0.dtd"
   xmlns:inkscape="http://www.inkscape.org/namespaces/inkscape"
   width="75"
   height="60"
   id="svg2"
   version="1.1"
   inkscape:version="0.48.2 r9819"
   sodipodi:docname="incon.svg"
   inkscape:export-filename="C:\Users\John\Dropbox\Desarrollo Software\Proyecto WorkFlow\WorkFlow\img\inconsistencia.png"
   inkscape:export-xdpi="90"
   inkscape:export-ydpi="90">
  <defs
     id="defs4" />
  <sodipodi:namedview
     id="base"
     pagecolor="#ffffff"
     bordercolor="#666666"
     borderopacity="1.0"
     inkscape:pageopacity="0.0"
     inkscape:pageshadow="2"
     inkscape:zoom="6.5431592"
     inkscape:cx="65.811331"
     inkscape:cy="24.993275"
     inkscape:document-units="px"
     inkscape:current-layer="layer1"
     showgrid="false"
     fit-margin-top="-0.4"
     fit-margin-left="0"
     fit-margin-right="0"
     fit-margin-bottom="0"
     inkscape:window-width="1354"
     inkscape:window-height="716"
     inkscape:window-x="-4"
     inkscape:window-y="-3"
     inkscape:window-maximized="1" />
  <metadata
     id="metadata7">
    <rdf:RDF>
      <cc:Work
         rdf:about="">
        <dc:format>image/svg+xml</dc:format>
        <dc:type
           rdf:resource="http://purl.org/dc/dcmitype/StillImage" />
        <dc:title></dc:title>
      </cc:Work>
    </rdf:RDF>
  </metadata>
  <g
     inkscape:label="Capa 1"
     inkscape:groupmode="layer"
     id="layer1"
     transform="translate(802.99972,-741.97588)">
    <path
       style="fill:#000000"
       d="m -729.03307,800.12882 c 0.0106,-4.46104 -0.0283,-14.0818 -0.0283,-14.0818 0,0 -0.0131,-28.38946 0.0283,-42.58414 -24.31463,0 -48.62927,0 -72.9439,0 -0.1047,16.7659 0.39021,52.33554 0.39021,52.33554 5.41316,3.30908 11.33054,4.85926 17.66363,4.9573 6.3331,0.0981 15.12207,-1.29475 18.30775,-2.76261 3.18566,-1.46786 12.53765,-6.12409 19.38843,-5.90159 6.85078,0.22249 10.47619,-0.54061 17.48166,7.5146 -0.016,0.0449 0.27566,1.81368 -0.50917,0.82017 -7.50244,-7.24087 -10.20673,-7.03904 -16.97249,-7.23263 -6.76575,-0.1936 -15.55133,4.3815 -19.38843,6.06225 -3.8371,1.68075 -12.18336,2.78586 -18.30775,2.71691 -6.12438,-0.0689 -13.14489,-2.07352 -18.95188,-5.30504 -0.10049,-4.5307 -0.12273,-20.90264 -0.12273,-20.90264 0,0 0.0271,-22.52573 -0.002,-33.78859 24.99635,-7.4e-4 49.99269,-10e-4 74.98904,0 -0.12599,19.4506 -0.0769,39.46006 0.011,58.4358 -0.006,0.61445 -1.0833,0.49824 -1.06405,0.0649 z"
       id="path2996"
       inkscape:connector-curvature="0"
       sodipodi:nodetypes="ccccccczcczzzcsccccc" />
    <path
       style="opacity:0.98999999;fill:#ffffff;fill-opacity:1;stroke:#000000;stroke-width:1.52831376;stroke-linecap:round;stroke-linejoin:round;stroke-miterlimit:4;stroke-opacity:1;stroke-dasharray:none"
       d="M 14.320241,58.211121 C 13.14344,58.060827 11.14899,57.6531 9.8881315,57.305063 7.2963979,56.589656 2.1643953,54.272864 1.7566637,53.634188 1.6086403,53.402322 1.4176032,41.6241 1.3321368,27.460362 L 1.1767434,1.7081094 l 36.2974506,1.669e-4 36.29745,1.669e-4 0,27.5485058 0,27.548505 -2.261287,-2.148002 c -3.834108,-3.642026 -6.793433,-4.635757 -13.842438,-4.648241 -5.350501,-0.0095 -9.19472,0.982144 -17.213513,4.440235 -4.519233,1.948911 -5.669519,2.337476 -8.586376,2.900449 -5.94502,1.14743 -12.707897,1.479346 -17.547789,0.861226 l 0,0 z"
       id="path2983"
       inkscape:connector-curvature="0"
       transform="translate(-802.99972,741.97588)" />
  </g>
</svg>
