<?xml version="1.0" encoding="UTF-8"?>
<svg width="50" height="50" xmlns="http://www.w3.org/2000/svg">
 <!-- Created with SVG-edit - http://svg-edit.googlecode.com/ -->

 <g>
  <title>Layer 1</title>
  <g id="svg_13">
   <ellipse fill="#ffffff" stroke="#000000" stroke-width="5" cx="25.167854" cy="13.78043" id="svg_1" rx="19.5" ry="7.112679"/>
   <line fill="none" stroke="#000000" stroke-width="5" x1="5.667847" y1="14.414325" x2="16.653757" y2="44.414325" id="svg_3"/>
   <line fill="none" stroke="#000000" stroke-width="5" x1="44.667781" y1="14.132574" x2="34.093841" y2="44.414265" id="svg_4"/>
   <ellipse fill="none" stroke="#000000" stroke-width="5" cx="25.373709" cy="44.414265" id="svg_5" rx="8.720068" ry="2.253525"/>
   <g id="svg_12">
    <path id="svg_10" d="m21.312401,31.218307l1.989767,0l-4.670433,4.1689l-4.670286,-4.1689l1.989784,0c0,0 -0.002745,-8.482737 11.208677,-9.065283c-7.092934,2.708775 -5.847509,9.065283 -5.847509,9.065283zm1.131233,7.227257c11.211414,-0.582588 11.208679,-9.065283 11.208679,-9.065283l1.989773,0l-4.670334,-4.168907l-4.670435,4.168907l1.989775,0c0.000051,-0.000048 1.24548,6.356466 -5.847458,9.065283z" fill="black"/>
   </g>
  </g>
 </g>
</svg>