<svg width="50" height="50" xmlns="http://www.w3.org/2000/svg">
 <!-- Created with SVG-edit - http://svg-edit.googlecode.com/ -->
 <g>
  <title>Layer 1</title>
  <metadata>Created by potrace 1.8, written by Peter Selinger 2001-2007</metadata>
  <g id="svg_7" transform="rotate(-178.774 25.0655 23.9851)">
   <g id="svg_4" fill="#000000">
    <path id="svg_5" d="m17.68157,44.70025c-6.18652,-1.00232 -10.77652,-2.86383 -12.97175,-5.34586c-1.94576,-2.29108 -1.59652,-4.10484 3.69196,-17.6127c2.54446,-6.44367 4.93924,-12.64868 5.38827,-13.84197c1.19738,-3.38889 1.49673,-3.67527 4.19086,-4.53443c1.94576,-0.62049 3.84163,-0.76368 8.58131,-0.62049c6.63554,0.19092 8.58131,0.76368 9.67891,2.76838c0.34925,0.66824 2.44468,6.25275 4.63989,12.41005c2.24512,6.15728 4.59,12.50548 5.2386,14.08062c0.69848,1.57511 1.24728,3.38889 1.24728,4.05711c0,3.19798 -3.84164,6.10956 -10.12794,7.73242c-3.99131,1.05006 -15.26676,1.57511 -19.55741,0.90687l0.00001,0zm16.56393,-5.10719c4.39043,-0.85916 8.13228,-2.38654 8.13228,-3.29345c0,-1.00233 -2.44467,-2.43427 -5.7375,-3.4366c-2.39479,-0.66824 -4.6399,-0.85916 -11.22555,-0.85916c-7.18435,0 -8.6811,0.14319 -11.82425,1.09781c-1.99566,0.57277 -4.09109,1.52739 -4.6399,2.10016l-1.04772,1.05006l1.14751,0.85916c1.19739,0.85916 6.63555,2.57745 9.13011,2.91159c3.94142,0.4773 12.57262,0.28638 16.06501,-0.42957l0,0.00001zm-21.80251,-10.59627c0,-0.57278 4.19088,-1.5274 6.73532,-1.5274c2.49457,0 3.39261,-0.76368 1.64641,-1.38419c-2.09544,-0.7637 -4.39044,-3.81846 -4.39044,-5.77543c0,-0.7637 -0.24947,-1.00235 -1.04772,-0.85916c-0.84816,0.09546 -1.29718,0.81143 -1.99566,2.81613c-0.44902,1.47965 -1.24728,3.38889 -1.64641,4.15257c-0.99783,1.86152 -0.99783,2.95932 -0.04989,2.95932c0.39913,0 0.74837,-0.19092 0.74837,-0.38184zm27.58991,0.09546c0.14968,-0.14319 -0.09978,-0.95462 -0.59869,-1.76605c-0.49891,-0.85916 -1.59652,-3.57981 -2.44468,-6.06182c-0.84815,-2.48202 -2.09542,-5.91862 -2.74401,-7.63694l-1.19739,-3.10251l-2.69412,0.23865c-3.94142,0.33411 -8.43164,0.2864 -10.47719,-0.14319c-1.74619,-0.33411 -1.84597,-0.28638 -2.44467,1.19327c-0.29935,0.85916 -0.99783,2.38655 -1.54663,3.3889c-0.94796,1.90924 -1.19739,3.19797 -0.59871,3.19797c0.19957,0 1.09761,-0.66824 1.94576,-1.47965l1.59652,-1.47967l2.29501,1.81379c1.24727,1.00235 2.29499,1.90924 2.29499,1.95697c0,0.09546 -0.5488,0.38184 -1.19739,0.62049c-1.0976,0.38186 -1.1475,0.57278 -0.69848,2.24335c0.24946,1.00235 0.99783,2.43429 1.64642,3.19797c1.09761,1.33648 1.49674,1.43194 6.9349,2.0047c3.14316,0.33411 6.3362,0.90689 7.13446,1.28873c1.59652,0.81143 2.34489,0.95462 2.79392,0.52505l0,0l-0.00001,0zm-14.61816,-22.3858c0,-0.38184 -0.34923,-0.71595 -0.74837,-0.71595c-0.39913,0 -0.74838,0.33411 -0.74838,0.71595c0,0.38186 0.34925,0.71598 0.74838,0.71598c0.39913,0 0.74837,-0.33411 0.74837,-0.71598zm3.4924,0.23865c0,-0.23865 -0.14968,-0.4773 -0.34925,-0.4773c-0.24945,0 -0.94793,-0.14319 -1.6464,-0.28638l-1.24729,-0.23865l1.24729,0.71595c1.49674,0.85916 1.99566,0.95462 1.99566,0.28638z"/>
    <path id="svg_6" d="m29.90496,24.22371c0,-0.19094 -0.69849,-0.7637 -1.54663,-1.24102c-1.39696,-0.76369 -1.44685,-0.90689 -0.74837,-1.67057c1.69631,-1.76606 0.5987,-5.10722 -2.3449,-7.06419c-1.29717,-0.90689 -1.39695,-1.09781 -0.64858,-1.38419c1.24728,-0.47732 5.68761,1.67057 7.03468,3.3889c0.5987,0.7637 1.39696,2.24335 1.69631,3.19798c0.34923,0.95462 0.84813,1.86151 1.19738,2.0047c0.79826,0.28638 -2.59435,3.10251 -3.74186,3.15025c-0.49891,0 -0.89803,-0.19092 -0.89803,-0.38185l0,0z"/>
   </g>
  </g>
 </g>
</svg>