<?xml version="1.0" encoding="UTF-8"?>
<svg width="50" height="50" xmlns="http://www.w3.org/2000/svg">
 <!-- Created with SVG-edit - http://svg-edit.googlecode.com/ -->

 <g>
  <title>Layer 1</title>
  <path fill="#000000" stroke="#000000" stroke-width="0" d="m41.121735,20.225658l-5.053841,-4.771974l0,5.308066l-9.071873,0c-1.588228,0.197514 -4.328777,-2.747499 -7.380064,-6.658894c-3.068556,-3.706828 -6.577328,-8.253073 -11.272946,-8.376514l-3.163499,0l0,8.46469l3.163499,0c2.300331,-0.109331 5.135839,2.849784 8.15692,6.665952c1.126431,1.333181 2.26149,2.803926 3.465605,4.13006c-1.204115,1.329664 -2.339174,2.803934 -3.465605,4.137125c-3.021083,3.805586 -5.856591,6.768229 -8.15692,6.66242l-3.163499,0l0,8.478794l3.163499,0c4.686986,-0.109325 8.195758,-4.669689 11.277259,-8.372986c3.051291,-3.907871 5.791845,-6.852877 7.380064,-6.662422l9.06756,0l0,5.30806l5.053841,-4.76491l5.058151,-4.771969l-5.058151,-4.775499l0,0z" id="svg_4"/>
 </g>
</svg>